<?xml version="1.0" encoding="UTF-8"?>
<svg version="1.1" xmlns="http://www.w3.org/2000/svg" width="64" height="64">
<path d="M0 0 C3.3 0 6.6 0 10 0 C10 9.24 10 18.48 10 28 C11.32 28 12.64 28 14 28 C14 20.41 14 12.82 14 5 C17.3 5 20.6 5 24 5 C24 12.59 24 20.18 24 28 C24.99 28 25.98 28 27 28 C27 18.76 27 9.52 27 0 C30.3 0 33.6 0 37 0 C37 9.24 37 18.48 37 28 C38.98 28 40.96 28 43 28 C43 28.33 43 28.66 43 29 C22.54 29 2.08 29 -19 29 C-19 28.67 -19 28.34 -19 28 C-17.02 28 -15.04 28 -13 28 C-13 20.41 -13 12.82 -13 5 C-9.7 5 -6.4 5 -3 5 C-3 12.59 -3 20.18 -3 28 C-2.01 28 -1.02 28 0 28 C0 18.76 0 9.52 0 0 Z " fill="#4D4278" transform="translate(20,26)"/>
<path d="M0 0 C2.33294775 -0.04241723 4.66702567 -0.04092937 7 0 C8 1 8 1 8.0625 4.5625 C8.041875 5.696875 8.02125 6.83125 8 8 C7.27425781 8.22429688 6.54851563 8.44859375 5.80078125 8.6796875 C2.38274673 10.29097853 0.64114341 12.26851962 -1.8125 15.125 C-2.60269531 16.03507812 -3.39289062 16.94515625 -4.20703125 17.8828125 C-4.79871094 18.58148437 -5.39039062 19.28015625 -6 20 C-10.26756748 19.5136958 -12.23772351 17.06612942 -15.125 14.0625 C-15.99382813 13.16660156 -16.86265625 12.27070313 -17.7578125 11.34765625 C-18.49773438 10.57292969 -19.23765625 9.79820313 -20 9 C-20.66 8.34 -21.32 7.68 -22 7 C-23.0847278 8.22793624 -24.16770815 9.4574162 -25.25 10.6875 C-25.89066406 11.41324219 -26.53132813 12.13898437 -27.19140625 12.88671875 C-29.12922134 15.09555489 -29.12922134 15.09555489 -31.1875 18 C-31.785625 18.66 -32.38375 19.32 -33 20 C-34.32 20 -35.64 20 -37 20 C-36.52018616 15.37558727 -34.79572683 13.25701498 -31.625 9.9375 C-28.89802309 7.05507652 -26.31151527 4.22866488 -24 1 C-18.95193086 1.35991718 -16.47760134 4.04398041 -13.1875 7.5625 C-12.68541016 8.08263672 -12.18332031 8.60277344 -11.66601562 9.13867188 C-10.43470873 10.4168857 -9.2160593 11.70727147 -8 13 C-3.71618806 8.80600992 -1.25773453 5.8694278 0 0 Z " fill="#3F4383" transform="translate(47,6)"/>
<path d="M0 0 C2.64 0 5.28 0 8 0 C8 8.91 8 17.82 8 27 C5.36 27 2.72 27 0 27 C0 18.09 0 9.18 0 0 Z " fill="#5FCEDC" transform="translate(48,27)"/>
<path d="M0 0 C2.31 0 4.62 0 7 0 C7 8.91 7 17.82 7 27 C4.69 27 2.38 27 0 27 C0 18.09 0 9.18 0 0 Z " fill="#CECECE" transform="translate(22,27)"/>
<path d="M0 0 C2.64 0 5.28 0 8 0 C8 7.26 8 14.52 8 22 C5.36 22 2.72 22 0 22 C0 14.74 0 7.48 0 0 Z " fill="#DC3575" transform="translate(8,32)"/>
<path d="M0 0 C2.31 0 4.62 0 7 0 C7 6.93 7 13.86 7 21 C4.69 21 2.38 21 0 21 C0 14.07 0 7.14 0 0 Z " fill="#F8AF23" transform="translate(35,33)"/>
<path d="M0 0 C2.5 0.125 2.5 0.125 3.5 1.125 C3.54063832 2.79117115 3.542721 4.45888095 3.5 6.125 C2.18 6.125 0.86 6.125 -0.5 6.125 C-2.86509436 8.56039823 -2.86509436 8.56039823 -5.0625 11.625 C-7.37890625 14.71875 -7.37890625 14.71875 -9.5 17.125 C-12.5 17.125 -12.5 17.125 -14.18359375 15.76953125 C-14.76238281 15.16496094 -15.34117188 14.56039063 -15.9375 13.9375 C-16.5459375 13.30328125 -17.154375 12.6690625 -17.78125 12.015625 C-19.79714708 9.79813821 -21.690362 7.51372216 -23.5 5.125 C-27.23665662 5.67523295 -28.68446617 7.07002744 -31.0625 9.9375 C-31.64128906 10.62457031 -32.22007813 11.31164063 -32.81640625 12.01953125 C-33.95257427 13.4404003 -35.04362957 14.89836983 -36.08984375 16.38671875 C-36.55519531 16.96035156 -37.02054688 17.53398437 -37.5 18.125 C-38.16 18.125 -38.82 18.125 -39.5 18.125 C-37.94182816 14.47515184 -35.68875601 11.9564046 -33 9.0625 C-30.59463269 6.46579665 -28.46595796 4.07393694 -26.5 1.125 C-22.42623969 2.73510527 -19.73492931 5.66322271 -16.75 8.75 C-16.24339844 9.265625 -15.73679687 9.78125 -15.21484375 10.3125 C-13.97196098 11.57883339 -12.73534724 12.8513144 -11.5 14.125 C-6.67547643 9.40392009 -6.67547643 9.40392009 -2.5 4.125 C-2.995 2.64 -2.995 2.64 -3.5 1.125 C-2.5 0.125 -2.5 0.125 0 0 Z " fill="#5EACD9" transform="translate(50.5,6.875)"/>
<path d="M0 0 C1.32 0 2.64 0 4 0 C4 8.91 4 17.82 4 27 C2.68 27 1.36 27 0 27 C0 18.09 0 9.18 0 0 Z " fill="#61B4E1" transform="translate(48,27)"/>
<path d="M0 0 C15.18 0 30.36 0 46 0 C46 0.66 46 1.32 46 2 C30.82 2 15.64 2 0 2 C0 1.34 0 0.68 0 0 Z " fill="#3F3578" transform="translate(9,56)"/>
<path d="M0 0 C1.32 0 2.64 0 4 0 C4 6.93 4 13.86 4 21 C2.68 21 1.36 21 0 21 C0 14.07 0 7.14 0 0 Z " fill="#EA5F75" transform="translate(12,33)"/>
<path d="M0 0 C1.98 0 3.96 0 6 0 C6.33 0.66 6.66 1.32 7 2 C4.69 2 2.38 2 0 2 C0 1.34 0 0.68 0 0 Z " fill="#362D6F" transform="translate(56,56)"/>
<path d="M0 0 C1.98 0 3.96 0 6 0 C6 0.66 6 1.32 6 2 C3.69 2 1.38 2 -1 2 C-0.67 1.34 -0.34 0.68 0 0 Z " fill="#362D6F" transform="translate(2,56)"/>
</svg>
